<?xml version="1.0" encoding="utf-8"?>
<!-- Generator: Adobe Illustrator 24.0.2, SVG Export Plug-In . SVG Version: 6.00 Build 0)  -->
<svg version="1.1" id="Capa_1" xmlns="http://www.w3.org/2000/svg" xmlns:xlink="http://www.w3.org/1999/xlink" x="0px" y="0px"
	 viewBox="0 0 453.5 314.8" style="enable-background:new 0 0 453.5 314.8;" xml:space="preserve">
<style type="text/css">
	.st0{fill:#FFFFFF;}
</style>
<g id="Capa_2_1_">
	<g id="Capa_1-2">
		<path class="st0" d="M423,121.3l0.8-3.2h-0.1L423,121.3z M389.5,60.7l0.7,0.6l12.3-6.9l30.3,22.7L453.5,0H135.1
			C104,0,76.8,20.9,68.7,50.9l-7.4,27.8h288.9l0.3-1.2L389.5,60.7L389.5,60.7z M373.7,139.9l-6.5,2.8l-27.9-24.2l-27.4,102.4
			c-2.4,9-10.6,15.3-19.9,15.3H105.4l6.4-24.1c2.4-9,10.6-15.3,19.9-15.3h128.6c9.3,0,17.5-6.3,19.9-15.3l17-63.4H105.5
			c-31.1,0-58.3,20.9-66.4,50.9L0,314.8h318.4c31.1,0,58.3-20.9,66.4-50.9L422.5,123l-40.8,22.8L373.7,139.9L373.7,139.9z"/>
		<path class="st0" d="M432.8,77.2l-30.3-22.7l-12.3,6.8l-0.7-0.6l-39,16.8l-0.3,1.2l-10.8,39.7l27.8,24.2l6.5-2.7l8,5.9l40.8-22.8
			h0.1l0.4-1.7l0.7-3.2l9.3-40.8L432.8,77.2z"/>
	</g>
</g>
</svg>
