<svg version="1.1" id="Capa_1" xmlns="http://www.w3.org/2000/svg" x="0" y="0" viewBox="0 0 453.5 314.8" style="enable-background:new 0 0 453.5 314.8" xml:space="preserve"><style>.st0{fill:#0ee951}</style><g id="Capa_2_1_"><g id="Capa_1-2"><path class="st0" d="m423 121.3.8-3.2h-.1zM389.5 60.7l.7.6 12.3-6.9 30.3 22.7L453.5 0H135.1C104 0 76.8 20.9 68.7 50.9l-7.4 27.8h288.9l.3-1.2 39-16.8zM373.7 139.9l-6.5 2.8-27.9-24.2-27.4 102.4c-2.4 9-10.6 15.3-19.9 15.3H105.4l6.4-24.1c2.4-9 10.6-15.3 19.9-15.3h128.6c9.3 0 17.5-6.3 19.9-15.3l17-63.4H105.5c-31.1 0-58.3 20.9-66.4 50.9L0 314.8h318.4c31.1 0 58.3-20.9 66.4-50.9L422.5 123l-40.8 22.8-8-5.9z"/><path class="st0" d="m432.8 77.2-30.3-22.7-12.3 6.8-.7-.6-39 16.8-.3 1.2-10.8 39.7 27.8 24.2 6.5-2.7 8 5.9 40.8-22.8h.1l.4-1.7.7-3.2 9.3-40.8z"/></g></g></svg>