<?xml version="1.0" encoding="utf-8"?>
<!-- Generator: Adobe Illustrator 24.0.2, SVG Export Plug-In . SVG Version: 6.00 Build 0)  -->
<svg version="1.1" id="Capa_1" xmlns="http://www.w3.org/2000/svg" xmlns:xlink="http://www.w3.org/1999/xlink" x="0px" y="0px"
	 viewBox="0 0 453.5 314.8" style="enable-background:new 0 0 453.5 314.8;" xml:space="preserve">
<style type="text/css">
	.st0{fill:#0EE951;}
</style>
<title>juanRecurso 1jc</title>
<g id="Capa_2_1_">
	<g id="Capa_1-2">
		<polygon class="st0" points="423,121.3 423.8,118.1 423.8,118.1 423.7,118.1 423.7,118.1 		"/>
		<path class="st0" d="M389.5,60.7l0.7,0.6l12.3-6.9l30.3,22.7L453.5,0H135.1C104,0,76.8,20.9,68.7,50.9l-7.4,27.8h288.9l0.3-1.2
			L389.5,60.7z"/>
		<path class="st0" d="M373.7,139.9l-6.5,2.8l-27.9-24.2l-27.4,102.4c-2.4,9-10.6,15.3-19.9,15.3H105.4l6.4-24.1
			c2.4-9,10.6-15.3,19.9-15.3h128.6c9.3,0,17.5-6.3,19.9-15.3l17-63.4H105.5c-31.1,0-58.3,20.9-66.4,50.9L0,314.8h318.4
			c31.1,0,58.3-20.9,66.4-50.9L422.5,123l-40.8,22.8L373.7,139.9z"/>
		<polygon class="st0" points="432.8,77.2 402.5,54.5 390.2,61.3 389.5,60.7 350.5,77.5 350.2,78.7 339.4,118.4 339.4,118.4 
			367.2,142.6 373.7,139.9 381.7,145.8 422.5,123 422.6,123 423,121.3 423.7,118.1 423.7,118.1 433,77.3 		"/>
	</g>
</g>
</svg>
